# xmcd CD database file
#
# Track frame offsets:
#	150
#	1542
#	15217
#	32772
#	50235
#	63130
#	84550
#	96830
#	109615
#	110910
#	128657
#	147995
#	158277
#	177425
#	193870
#	205220
#	219302
#
# Disc length: 3077 seconds
#
# Revision: 0
# Processed by: cddbd v1.5.1PL0 Copyright (c) Steve Scherf et al.
# Submitted via: CDex 1.51
#
DISCID=db0c0311
DTITLE=Eddie Condon - Town Hall Concerts - disc 2
DYEAR=1900
DGENRE=Jazz
TTITLE0=Intro 3
TTITLE1=Ballin the Jack
TTITLE2=Whatcha Doin After the War
TTITLE3=I'm Coming Virginia
TTITLE4=It's Been So Long
TTITLE5=What's New
TTITLE6=The One I Love Belongs to Somebody Else
TTITLE7=Impromptu Ensemble 3
TTITLE8=Intro 4
TTITLE9=Muskrat Ramble
TTITLE10=Mean to Me
TTITLE11=Whan My Sugar Walks down the Street
TTITLE12=Body and Soul
TTITLE13=Ja Da
TTITLE14=Back in Your Own Backyard
TTITLE15=You Don't Know What Love Is
TTITLE16=Impromptu Ensemble 4
EXTD=
EXTT0=
EXTT1=
EXTT2=
EXTT3=
EXTT4=
EXTT5=
EXTT6=
EXTT7=
EXTT8=
EXTT9=
EXTT10=
EXTT11=
EXTT12=
EXTT13=
EXTT14=
EXTT15=
EXTT16=
PLAYORDER=
